<?xml version="1.0" encoding="iso-8859-1"?>
<!-- Generator: Adobe Illustrator 19.0.0, SVG Export Plug-In . SVG Version: 6.00 Build 0)  -->
<svg version="1.1" id="Capa_1" xmlns="http://www.w3.org/2000/svg" xmlns:xlink="http://www.w3.org/1999/xlink" x="0px" y="0px"
	 viewBox="0 0 512 512" style="enable-background:new 0 0 512 512;" xml:space="preserve">
<g transform="matrix(1.25 0 0 -1.25 0 45)">
	<g>
		<g>
			<path style="fill:#3B88C3;" d="M409.6-328.089c0-25.134-20.378-45.511-45.511-45.511H45.511C20.378-373.6,0-353.222,0-328.089
				V-9.511C0,15.622,20.378,36,45.511,36h318.578C389.222,36,409.6,15.622,409.6-9.511V-328.089z"/>
			<path style="fill:#FFFFFF;" d="M91.022-68.175c0,17.636,13.278,27.511,28.444,27.511s28.444-9.876,28.444-27.511v-123.119
				c0-32.461,23.381-56.013,56.889-56.013c32.108,0,56.889,24.963,56.889,56.013v123.119c0,17.636,13.289,27.511,28.444,27.511
				c15.178,0,28.069-9.876,28.069-27.511v-125.941c0-59.267-55.205-104.073-113.402-104.073c-58.914,0-113.778,44.1-113.778,104.073
				L91.022-68.175z"/>
		</g>
	</g>
</g>
<g>
</g>
<g>
</g>
<g>
</g>
<g>
</g>
<g>
</g>
<g>
</g>
<g>
</g>
<g>
</g>
<g>
</g>
<g>
</g>
<g>
</g>
<g>
</g>
<g>
</g>
<g>
</g>
<g>
</g>
</svg>
